<?xml version="1.0" encoding="UTF-8" standalone="no"?>
<svg
   width="980"
   height="320"
   viewBox="0 0 980 320"
   role="img"
   aria-labelledby="title desc"
   version="1.1"
   id="svg2"
   sodipodi:docname="homeplate-wordmark.svg"
   xmlns:inkscape="http://www.inkscape.org/namespaces/inkscape"
   xmlns:sodipodi="http://sodipodi.sourceforge.net/DTD/sodipodi-0.dtd"
   xmlns="http://www.w3.org/2000/svg"
   xmlns:svg="http://www.w3.org/2000/svg">
  <sodipodi:namedview
     id="namedview2"
     pagecolor="#ffffff"
     bordercolor="#000000"
     borderopacity="0.25"
     inkscape:showpageshadow="2"
     inkscape:pageopacity="0.0"
     inkscape:pagecheckerboard="0"
     inkscape:deskcolor="#d1d1d1" />
  <title
     id="title">HomePlate Health and Nutrition wordmark</title>
  <desc
     id="desc">HomePlate Health and Nutrition wordmark.</desc>
  <defs
     id="defs1" />
  <path
     d="M 47.03125,170 H 73.398437 V 125.68848 H 114.92676 V 170 h 26.36719 V 60.869141 H 114.92676 V 103.27637 H 73.398437 V 60.869141 H 47.03125 Z m 138.8252,1.75781 c 24.24316,0 40.64941,-15.89355 40.64941,-40.42969 0,-24.38964 -16.40625,-40.429683 -40.64941,-40.429683 -24.24317,0 -40.72266,16.040043 -40.72266,40.429683 0,24.53614 16.47949,40.42969 40.72266,40.42969 z m 0,-20.06836 c -8.86231,0 -15.16114,-7.25097 -15.16114,-20.36133 0,-13.0371 6.37207,-20.36132 15.16114,-20.36132 8.78906,0 15.16113,7.32422 15.16113,20.36132 0,13.11036 -6.37207,20.36133 -15.16113,20.36133 z M 230.3457,170 h 25.19532 v -45.04395 c 0,-8.56933 5.05371,-13.5498 11.93847,-13.5498 6.81153,0 11.42578,4.83398 11.42578,12.37793 V 170 h 24.09668 v -45.55664 c 0,-7.83691 4.54102,-13.03711 11.71875,-13.03711 6.81153,0 11.64551,4.46777 11.64551,12.6709 V 170 h 25.26856 v -51.48926 c 0,-17.21191 -10.91309,-27.53906 -26.14747,-27.53906 -11.05957,0 -20.87402,5.493164 -24.8291,15.60059 -3.14941,-10.107426 -12.08496,-15.60059 -22.41211,-15.60059 -10.03418,0 -19.18945,5.126953 -23.65722,16.18652 V 92.65625 H 230.3457 Z m 164.89942,1.75781 c 19.55566,0 35.15625,-10.91308 38.01269,-26.51367 h -22.63183 c -1.83106,5.12695 -7.1045,8.34961 -14.50196,8.34961 -9.96093,0 -15.82031,-6.22559 -16.11328,-16.04004 h 53.83301 v -6.81152 c 0,-23.4375 -16.04004,-39.843753 -39.25781,-39.843753 -22.92481,0 -39.18457,16.845703 -39.18457,40.429683 0,23.58399 16.11328,40.42969 39.84375,40.42969 z m -15.08789,-49.29199 c 1.09863,-8.12988 6.59179,-12.96387 15.08789,-12.96387 8.42285,0 13.98925,4.83399 15.08789,12.96387 z M 437.39062,170 h 26.36719 v -35.30273 h 18.16406 c 25.26856,0 41.23536,-14.28223 41.23536,-36.914067 0,-22.631836 -15.82032,-36.914062 -41.08887,-36.914062 h -44.67774 z m 26.36719,-57.20215 V 82.695312 h 16.47949 c 10.54688,0 17.21192,5.786133 17.21192,15.087891 0,9.228517 -6.66504,15.014647 -17.21192,15.014647 z M 551.45996,60.869141 H 526.26465 V 170 h 25.19531 z m 30.71973,110.449219 c 10.91308,0 17.87109,-3.80859 22.48535,-12.1582 h 0.29297 V 170 h 24.60937 v -52.0752 c 0,-17.06542 -12.37793,-26.95312 -34.86328,-26.95312 -22.41211,0 -35.08301,9.96094 -36.18164,26.7334 h 23.4375 c 0.5127,-5.27344 4.83399,-8.64258 11.86524,-8.64258 6.66503,0 10.7666,3.14941 10.7666,7.76367 v 0.36621 c 0,4.61426 -5.05371,5.71289 -18.89649,6.88477 -16.47949,1.31836 -30.02929,6.95801 -30.02929,24.3164 0,15.38086 11.05957,22.92481 26.51367,22.92481 z m 7.69043,-16.47949 c -6.15235,0 -10.32715,-2.85645 -10.32715,-7.61719 0,-5.05371 4.83398,-7.83691 11.57226,-8.86231 6.22559,-1.02539 10.98633,-1.97753 13.69629,-3.22265 v 7.03125 c 0,7.61719 -6.51855,12.6709 -14.9414,12.6709 z M 685.33594,92.65625 H 669.44238 V 71.5625 h -25.26855 v 21.09375 h -13.1836 v 19.48242 h 13.1836 v 36.1084 c 0,15.01465 8.34961,21.75293 26.87988,21.75293 h 14.28223 v -19.48242 h -8.71582 c -5.63965,0 -7.17774,-1.53809 -7.17774,-6.51856 v -31.86035 h 15.89356 z m 38.84961,79.10156 c 19.55566,0 35.15625,-10.91308 38.01269,-26.51367 h -22.63183 c -1.83106,5.12695 -7.1045,8.34961 -14.50196,8.34961 -9.96093,0 -15.82031,-6.22559 -16.11328,-16.04004 h 53.83301 v -6.81152 c 0,-23.4375 -16.04004,-39.843753 -39.25781,-39.843753 -22.92481,0 -39.18457,16.845703 -39.18457,40.429683 0,23.58399 16.11328,40.42969 39.84375,40.42969 z m -15.08789,-49.29199 c 1.09863,-8.12988 6.59179,-12.96387 15.08789,-12.96387 8.42285,0 13.98925,4.83399 15.08789,12.96387 z"
     id="text1"
     style="font-weight:800;font-size:150px;font-family:'Inter Display', Inter, Arial, sans-serif;letter-spacing:-7;fill:#0b1f3a"
     aria-label="HomePlate" />
  <path
     d="m 47.276367,245 h 6.316406 V 232.12109 H 66.574219 V 245 h 6.295898 v -30.55664 h -6.295898 v 12.26367 H 53.592773 v -12.26367 h -6.316406 z m 37.166992,0 h 21.922851 v -5.41406 H 90.759766 v -7.38282 h 14.437504 v -5.2705 H 90.759766 v -7.0752 h 15.606444 v -5.41406 H 84.443359 Z m 30.440431,0 h 6.80859 l 2.21485,-6.66504 h 11.42285 L 137.46289,245 h 6.99316 l -10.72558,-30.55664 h -8.12109 z m 10.72559,-11.70996 1.04589,-3.1582 c 0.98438,-3.11719 1.92774,-6.23438 3.03516,-10.02832 1.08691,3.79394 2.03027,6.91113 2.97363,10.02832 l 1.02539,3.1582 z M 153.9375,245 h 20.2002 v -5.41406 h -13.88379 v -25.14258 h -6.31641 z m 25.16992,-25.14258 h 9.26953 V 245 h 6.31641 v -25.14258 h 9.24902 v -5.41406 H 179.10742 Z M 214.1416,245 h 6.31641 v -12.87891 h 12.98144 V 245 h 6.2959 v -30.55664 h -6.2959 v 12.26367 h -12.98144 v -12.26367 h -6.31641 z m 51.07813,0 h 6.80859 l 2.21484,-6.66504 h 11.42286 L 287.79883,245 h 6.99316 l -10.72558,-30.55664 h -8.1211 z m 10.72558,-11.70996 1.0459,-3.1582 c 0.98438,-3.11719 1.92774,-6.23438 3.03516,-10.02832 1.08691,3.79394 2.03027,6.91113 2.97363,10.02832 l 1.02539,3.1582 z M 304.27344,245 h 6.3164 v -14.1709 c 0,-1.3125 -0.0205,-3.91699 -0.14355,-7.11621 1.72266,3.09668 3.28125,5.74219 4.16308,7.13672 L 323.50977,245 h 6.66503 v -30.55664 h -6.29589 v 15.11426 c 0,1.29199 0.0205,3.81445 0.10254,6.17285 -1.20997,-2.19434 -2.52247,-4.51172 -3.24024,-5.66016 l -9.82324,-15.62695 h -6.64453 z m 48.24121,0 c 9.37207,0 15.09375,-5.88574 15.09375,-15.29883 0,-9.37207 -5.7832,-15.25781 -14.9707,-15.25781 H 341.72754 V 245 Z m -4.4707,-5.31152 v -19.9336 h 4.2041 c 6.07031,0 9.00293,3.52735 9.00293,9.94629 0,6.43945 -2.89161,9.98731 -9.06446,9.98731 z M 394.17969,245 h 6.3164 v -14.1709 c 0,-1.3125 -0.0205,-3.91699 -0.14355,-7.11621 1.72266,3.09668 3.28125,5.74219 4.16308,7.13672 L 413.41602,245 h 6.66503 v -30.55664 h -6.29589 v 15.11426 c 0,1.29199 0.0205,3.81445 0.10254,6.17285 -1.20997,-2.19434 -2.52247,-4.51172 -3.24024,-5.66016 l -9.82324,-15.62695 h -6.64453 z m 49.96386,0.49219 c 7.62891,0 12.5918,-4.53223 12.5918,-11.13574 v -19.91309 h -6.17285 v 19.40039 c 0,3.60937 -2.52246,6.19336 -6.41895,6.19336 -3.87597,0 -6.39843,-2.60449 -6.39843,-6.19336 v -19.40039 h -6.17285 v 19.91309 c 0,6.62402 4.94238,11.13574 12.57128,11.13574 z m 22.70899,-25.63477 h 9.26953 V 245 h 6.31641 v -25.14258 h 9.24902 v -5.41406 H 466.85254 Z M 501.88672,245 h 6.3164 v -10.68457 h 5.53711 c 0.0205,0 0.041,0 0.0615,0 L 519.21582,245 h 6.76758 l -6.13184,-11.87402 c 3.42481,-1.57911 5.45508,-4.61426 5.45508,-8.6543 0,-6.15234 -4.30664,-10.02832 -11.19727,-10.02832 h -12.22265 z m 6.3164,-15.75 v -9.55664 h 5.51661 c 3.34277,0 5.41406,1.86621 5.41406,4.77832 0,2.91211 -2.07129,4.77832 -5.39356,4.77832 z m 34.31641,-14.80664 h -6.31641 V 245 h 6.31641 z m 10.19922,5.41406 h 9.26953 V 245 h 6.31641 v -25.14258 h 9.24902 v -5.41406 h -24.83496 z m 41.35059,-5.41406 h -6.31641 V 245 h 6.31641 z m 24.96484,31.04883 c 8.22363,0 14.41699,-6.0293 14.41699,-15.75 0,-9.74121 -6.19336,-15.79102 -14.41699,-15.79102 -8.22363,0 -14.39648,6.04981 -14.39648,15.79102 0,9.67968 6.17285,15.75 14.39648,15.75 z m 0,-5.57813 c -4.7168,0 -8.03906,-3.6914 -8.03906,-10.17187 0,-6.52149 3.32226,-10.21289 8.03906,-10.21289 4.7168,0 8.05957,3.6914 8.05957,10.21289 0,6.48047 -3.34277,10.17187 -8.05957,10.17187 z M 644.01953,245 h 6.31641 v -14.1709 c 0,-1.3125 -0.0205,-3.91699 -0.14356,-7.11621 1.72266,3.09668 3.28125,5.74219 4.16309,7.13672 L 663.25586,245 h 6.66504 v -30.55664 h -6.2959 v 15.11426 c 0,1.29199 0.0205,3.81445 0.10254,6.17285 -1.20996,-2.19434 -2.52246,-4.51172 -3.24024,-5.66016 l -9.82324,-15.62695 h -6.64453 z"
     id="text2"
     style="font-weight:700;font-size:42px;font-family:'Inter Display', Inter, Arial, sans-serif;letter-spacing:7;fill:#3f8f3a"
     aria-label="HEALTH AND NUTRITION" />
</svg>
